<?xml version="1.0" encoding="utf-8"?>
<svg viewBox="0 0 500 500" xmlns="http://www.w3.org/2000/svg" xmlns:xlink="http://www.w3.org/1999/xlink">
  <defs>
    <linearGradient gradientUnits="userSpaceOnUse" x1="118" y1="0" x2="118" y2="36" id="color-0-1" spreadMethod="pad" gradientTransform="matrix(-1.908375, -0.920181, 5.058072, -10.490096, 445.659688, 336.605457)" xlink:href="#color-0"/>
    <linearGradient id="color-0">
      <stop style="" offset="0"/>
      <stop style="stop-color: rgb(203, 68, 203);" offset="1"/>
    </linearGradient>
    <linearGradient gradientUnits="userSpaceOnUse" x1="236.985" y1="466.514" x2="236.985" y2="676.408" id="gradient-5" gradientTransform="matrix(0.633222, -0.77397, 0.709133, 0.580177, -330.196459, 467.670012)">
      <stop offset="0" style="stop-color: rgb(100% 100% 100%)"/>
      <stop offset="1" style="stop-color: rgb(56.687% 56.687% 56.687%)"/>
    </linearGradient>
    <linearGradient gradientUnits="userSpaceOnUse" x1="383.205" y1="502.378" x2="383.205" y2="712.271" id="gradient-6" gradientTransform="matrix(0.588664, -0.808379, 0.890982, 0.648815, -381.08989, 541.144551)">
      <stop offset="0" style="stop-color: rgb(100% 100% 100%)"/>
      <stop offset="1" style="stop-color: rgb(56.687% 56.687% 56.687%)"/>
    </linearGradient>
    <linearGradient gradientUnits="userSpaceOnUse" x1="344.785" y1="316.528" x2="344.785" y2="579.373" id="gradient-3" gradientTransform="matrix(0.675483, -0.737376, 0.876655, 0.803071, -210.242873, 284.05745)">
      <stop offset="0" style="stop-color: rgb(100% 100% 100%)"/>
      <stop offset="1" style="stop-color: rgb(56.687% 56.687% 56.687%)"/>
    </linearGradient>
    <linearGradient gradientUnits="userSpaceOnUse" x1="394.782" y1="179.88" x2="394.782" y2="308.323" id="gradient-4" gradientTransform="matrix(0.94378, -0.330575, 0.310618, 0.886805, 62.610468, 225.040922)">
      <stop offset="0" style="stop-color: rgb(100% 100% 100%)"/>
      <stop offset="1" style="stop-color: rgb(56.687% 56.687% 56.687%)"/>
    </linearGradient>
    <linearGradient gradientUnits="userSpaceOnUse" x1="164.269" y1="289.623" x2="164.269" y2="499.519" id="gradient-1" gradientTransform="matrix(-0.936083, 0.351777, -0.132703, -0.353123, 353.454392, 450.879022)">
      <stop offset="0" style="stop-color: rgb(125, 0, 125);"/>
      <stop offset="1" style="stop-color: rgb(29.208% 0% 29.564%)"/>
    </linearGradient>
    <linearGradient gradientUnits="userSpaceOnUse" x1="164.269" y1="289.623" x2="164.269" y2="499.519" id="gradient-2" gradientTransform="matrix(0.893395, -0.449271, 0.212926, 0.423411, -78.267936, 283.243337)">
      <stop offset="0" style="stop-color: rgb(158, 158, 158);"/>
      <stop offset="1" style="stop-color: rgb(255, 255, 255);"/>
    </linearGradient>
    <linearGradient id="gradient-0" x1="385.952" x2="385.952" y1="151.153" y2="711.153" gradientUnits="userSpaceOnUse" gradientTransform="matrix(-0.84005, 0.542507, -0.350538, -0.542787, 869.360093, 249.948311)">
      <stop style="" offset="0"/>
      <stop offset="0.228" style="stop-color: rgb(64, 64, 64);"/>
      <stop offset="0.482" style="stop-color: rgb(167, 167, 167);"/>
      <stop offset="0.805" style="stop-color: rgb(216, 216, 216);"/>
      <stop style="stop-color: rgb(124, 124, 124);" offset="1"/>
    </linearGradient>
    <mask id="mask-0">
      <g transform="matrix(0.904636, 0, 0, 0.904636, 28.002808, 47.624897)" style="filter: none;">
        <g style="filter: none;">
          <path d="M 236.984 466.514 C 255.414 466.514 270.355 481.456 270.355 499.885 L 270.355 643.039 C 270.355 661.47 255.414 676.408 236.984 676.408 C 218.557 676.408 203.614 661.47 203.614 643.039 L 203.614 499.885 C 203.614 481.458 218.557 466.518 236.984 466.518 L 236.984 466.514 Z" style="transform-box: fill-box; transform-origin: 50% 50%; stroke-linejoin: round; stroke-width: 11.0542px; stroke: rgb(255, 255, 255); fill: rgb(255, 255, 255);" transform="matrix(0.971214, 0.238208, -0.238208, 0.971214, 0.000006, -0.000001)"/>
          <path d="M 383.204 502.378 C 401.635 502.378 416.576 517.318 416.576 535.749 L 416.576 678.903 C 416.576 697.333 401.635 712.271 383.204 712.271 C 364.776 712.271 349.835 697.333 349.835 678.903 L 349.835 535.749 C 349.835 517.321 364.776 502.38 383.204 502.38 L 383.204 502.378 Z" style="transform-box: fill-box; transform-origin: 50% 50%; stroke-width: 11.0542px; stroke-linejoin: round; stroke: rgb(255, 255, 255); fill: rgb(255, 255, 255);" transform="matrix(0.971214, 0.238208, -0.238208, 0.971214, 0.000008, 0.000007)"/>
          <path d="M 193.325 316.528 C 193.215 317.793 193.119 319.072 193.119 320.366 L 193.119 537.256 C 193.119 560.582 211.582 579.373 234.502 579.373 L 455.065 579.373 C 477.987 579.373 496.45 560.58 496.45 537.256 L 496.45 320.366 C 496.45 319.072 496.404 317.789 496.296 316.528 L 193.325 316.528 Z" style="transform-box: fill-box; transform-origin: 27.9501% 2.58287%; stroke-width: 11.0542px; stroke-linejoin: round; stroke: rgb(255, 255, 255); fill: rgb(255, 255, 255);" transform="matrix(0.971214, 0.238208, -0.238208, 0.971214, 31.614403, -12.344621)"/>
          <path d="M 265.471 174.607 L 300.673 235.579 M 543.232 174.607 L 508.029 235.579" stroke-linecap="round" stroke-linejoin="round" style="filter: none; transform-origin: 404.351px 205.093px; stroke-width: 48.6384px; stroke: rgb(255, 255, 255); fill: rgb(255, 255, 255);" transform="matrix(0.971214, 0.238208, -0.238208, 0.971214, -0.000069, -0.000028)"/>
          <path d="M 244.298 308.323 C 245.226 241.703 303.373 187.08 378.012 179.88 L 411.549 179.88 C 486.194 187.082 544.337 241.707 545.265 308.323 L 244.298 308.323 Z" style="transform-box: fill-box; transform-origin: 50% 50%; stroke-width: 11.0542px; stroke-linejoin: round; stroke: rgb(255, 255, 255); fill: rgb(255, 255, 255);" transform="matrix(0.971214, 0.238208, -0.238208, 0.971214, 0.000002, -0.000009)"/>
          <path d="M 565.873 386.654 C 584.3 386.654 599.24 401.596 599.24 420.025 L 599.24 563.178 C 599.24 581.609 584.3 596.55 565.873 596.55 C 547.442 596.55 532.502 581.609 532.502 563.181 L 532.502 420.027 C 532.502 401.598 547.442 386.654 565.873 386.654 Z" style="transform-box: fill-box; transform-origin: 51.1127% 20.89%; stroke-linejoin: round; stroke-width: 11.0542px; stroke: rgb(255, 255, 255); fill: rgb(255, 255, 255);" transform="matrix(0.986987, -0.160801, 0.160801, 0.986987, 0.110404, 0.449189)"/>
          <path d="M 265.471 174.607 L 300.673 235.579 M 543.232 174.607 L 508.029 235.579" stroke-linecap="round" stroke-linejoin="round" style="stroke-width: 25px; transform-box: fill-box; transform-origin: 50% 50%; filter: none; stroke: rgb(255, 255, 255); fill: rgb(255, 255, 255);" transform="matrix(0.971214, 0.238208, -0.238208, 0.971214, 0, -0.000004)"/>
        </g>
      </g>
    </mask>
  </defs>
  <rect width="500" height="500" style="fill-rule: nonzero; fill: url('#color-0-1'); paint-order: fill;"/>
  <g transform="matrix(0.904636025428772, 0, 0, 0.904636025428772, 28.0028076171875, 47.62489700317383)" style="filter: none;">
    <g style="filter: none;">
      <path d="M 236.984 466.514 C 255.414 466.514 270.355 481.456 270.355 499.885 L 270.355 643.039 C 270.355 661.47 255.414 676.408 236.984 676.408 C 218.557 676.408 203.614 661.47 203.614 643.039 L 203.614 499.885 C 203.614 481.458 218.557 466.518 236.984 466.518 L 236.984 466.514 Z" style="transform-box: fill-box; transform-origin: 50% 50%; fill: rgb(102, 0, 102); stroke-linejoin: round; stroke-width: 11.0542px; stroke: url('#gradient-5');" transform="matrix(0.971214, 0.238208, -0.238208, 0.971214, 0.000006, -0.000001)"/>
      <path d="M 383.204 502.378 C 401.635 502.378 416.576 517.318 416.576 535.749 L 416.576 678.903 C 416.576 697.333 401.635 712.271 383.204 712.271 C 364.776 712.271 349.835 697.333 349.835 678.903 L 349.835 535.749 C 349.835 517.321 364.776 502.38 383.204 502.38 L 383.204 502.378 Z" style="transform-box: fill-box; transform-origin: 50% 50%; fill: rgb(102, 0, 102); stroke-width: 11.0542px; stroke-linejoin: round; stroke: url('#gradient-6');" transform="matrix(0.971214, 0.238208, -0.238208, 0.971214, 0.000008, 0.000007)"/>
      <path d="M 193.325 316.528 C 193.215 317.793 193.119 319.072 193.119 320.366 L 193.119 537.256 C 193.119 560.582 211.582 579.373 234.502 579.373 L 455.065 579.373 C 477.987 579.373 496.45 560.58 496.45 537.256 L 496.45 320.366 C 496.45 319.072 496.404 317.789 496.296 316.528 L 193.325 316.528 Z" style="transform-box: fill-box; transform-origin: 27.9501% 2.58287%; fill: rgb(102, 0, 102); stroke-width: 11.0542px; stroke-linejoin: round; stroke: url('#gradient-3');" transform="matrix(0.971214, 0.238208, -0.238208, 0.971214, 31.614403, -12.344621)"/>
      <path d="M 265.471 174.607 L 300.673 235.579 M 543.232 174.607 L 508.029 235.579" stroke-linecap="round" stroke-linejoin="round" style="fill: rgb(102, 0, 102); filter: none; transform-origin: 404.351px 205.093px; stroke: rgb(255, 255, 255); stroke-width: 48.6384px;" transform="matrix(0.971214, 0.238208, -0.238208, 0.971214, -0.000069, -0.000028)"/>
      <path d="M 244.298 308.323 C 245.226 241.703 303.373 187.08 378.012 179.88 L 411.549 179.88 C 486.194 187.082 544.337 241.707 545.265 308.323 L 244.298 308.323 Z" style="transform-box: fill-box; transform-origin: 50% 50%; fill: rgb(102, 0, 102); stroke-width: 11.0542px; stroke-linejoin: round; stroke: url('#gradient-4');" transform="matrix(0.971214, 0.238208, -0.238208, 0.971214, 0.000002, -0.000009)"/>
      <path d="M 565.873 386.654 C 584.3 386.654 599.24 401.596 599.24 420.025 L 599.24 563.178 C 599.24 581.609 584.3 596.55 565.873 596.55 C 547.442 596.55 532.502 581.609 532.502 563.181 L 532.502 420.027 C 532.502 401.598 547.442 386.654 565.873 386.654 Z" style="transform-box: fill-box; transform-origin: 51.1127% 20.89%; fill: rgb(102, 0, 102); stroke-linejoin: round; stroke-width: 11.0542px; stroke: rgb(191, 191, 191);" transform="matrix(0.986987, -0.160801, 0.160801, 0.986987, 0.110404, 0.449189)"/>
      <path d="M 164.269 289.623 C 182.697 289.623 197.639 304.565 197.639 322.994 L 197.639 466.147 C 197.639 484.578 182.697 499.519 164.269 499.519 C 145.84 499.519 130.898 484.578 130.898 466.15 L 130.898 322.996 C 130.896 304.567 145.837 289.623 164.269 289.623 Z" style="transform-box: fill-box; transform-origin: 52.5688% 15.599%; stroke-width: 11.0542px; stroke-linejoin: round; fill: url('#gradient-1'); stroke: url('#gradient-2');" transform="matrix(-0.886111, 0.463473, -0.463473, -0.886111, 0.00004, 0.000025)"/>
      <path d="M 265.471 174.607 L 300.673 235.579 M 543.232 174.607 L 508.029 235.579" stroke-linecap="round" stroke-linejoin="round" style="stroke-width: 25px; transform-box: fill-box; transform-origin: 50% 50%; fill: rgb(102, 0, 102); stroke: rgb(102, 0, 102); filter: none;" transform="matrix(0.971214, 0.238208, -0.238208, 0.971214, 0, -0.000004)"/>
    </g>
    <path d="M 348.81 249.047 C 348.837 258.36 341.131 265.93 331.594 265.956 C 322.061 265.98 314.31 258.453 314.281 249.141 L 314.281 249.047 C 314.255 239.733 321.962 232.164 331.498 232.139 C 341.031 232.113 348.781 239.636 348.81 248.953 L 348.81 249.047 Z M 477.683 249.047 C 477.712 258.36 470.004 265.93 460.467 265.956 C 450.934 265.98 443.182 258.453 443.155 249.141 L 443.155 249.047 C 443.128 239.733 450.836 232.164 460.371 232.139 C 469.903 232.113 477.655 239.636 477.683 248.953 L 477.683 249.047 Z" style="transform-box: fill-box; transform-origin: 50% 50%; fill: rgb(255, 255, 255);" transform="matrix(0.971214, 0.238208, -0.238208, 0.971214, 0, -0.000002)"/>
  </g>
  <rect x="79.952" y="151.153" width="612" height="560" style="fill: url('#gradient-0'); mask: url('#mask-0'); mix-blend-mode: soft-light;"/>
  <path d="M 84.679 137.109 C 85.331 138.529 85.946 139.987 86.522 141.485 C 87.086 139.975 87.713 138.489 88.403 137.032 C 89.055 135.612 89.746 134.191 90.437 132.848 L 109.783 94.692 C 110.128 94.04 110.474 93.541 110.858 93.157 C 111.203 92.812 111.626 92.543 112.086 92.351 C 112.547 92.158 113.046 92.082 113.621 92.082 L 128.976 92.082 L 128.976 167.548 L 113.544 167.548 L 113.544 124.095 C 113.544 121.984 113.66 119.719 113.852 117.263 L 93.853 156.071 C 93.239 157.299 92.395 158.182 91.358 158.835 C 90.321 159.449 89.094 159.756 87.75 159.756 L 85.37 159.756 C 84.027 159.756 82.836 159.449 81.762 158.835 C 80.725 158.22 79.881 157.299 79.267 156.071 L 59.114 117.224 C 59.268 118.453 59.345 119.642 59.422 120.833 C 59.499 122.022 59.537 123.136 59.537 124.134 L 59.537 167.548 L 44.106 167.548 L 44.106 92.082 L 59.46 92.082 C 60.036 92.082 60.534 92.158 60.996 92.351 C 61.456 92.543 61.84 92.773 62.223 93.157 C 62.569 93.502 62.953 94.04 63.298 94.692 L 82.722 133.04 C 83.374 134.345 84.065 135.689 84.679 137.109 Z M 211.773 129.776 C 211.773 133.04 211.427 136.149 210.775 139.143 C 210.084 142.137 209.124 144.939 207.857 147.549 C 206.591 150.16 205.055 152.616 203.174 154.842 C 201.331 157.108 199.221 159.065 196.879 160.792 L 215.994 181.674 L 201.601 181.674 C 199.527 181.674 197.647 181.405 195.958 180.906 C 194.269 180.408 192.772 179.409 191.467 177.874 L 182.1 167.356 C 180.565 167.663 179.03 167.894 177.456 168.085 C 175.882 168.239 174.27 168.354 172.62 168.354 C 166.747 168.354 161.372 167.356 156.536 165.399 C 151.699 163.441 147.554 160.715 144.137 157.223 C 140.683 153.768 138.035 149.661 136.154 144.977 C 134.272 140.295 133.313 135.189 133.313 129.738 C 133.313 124.287 134.272 119.221 136.154 114.499 C 138.035 109.816 140.683 105.709 144.137 102.254 C 147.592 98.799 151.699 96.074 156.536 94.116 C 161.372 92.158 166.708 91.161 172.62 91.161 C 178.493 91.161 183.828 92.158 188.664 94.155 C 193.501 96.151 197.609 98.876 201.025 102.331 C 204.44 105.786 207.089 109.854 208.97 114.575 C 210.852 119.259 211.773 124.325 211.773 129.776 Z M 193.846 129.776 C 193.846 126.052 193.348 122.675 192.388 119.681 C 191.428 116.687 190.047 114.154 188.204 112.08 C 186.4 110.008 184.174 108.434 181.563 107.321 C 178.953 106.207 175.959 105.67 172.581 105.67 C 169.203 105.67 166.171 106.207 163.522 107.321 C 160.874 108.434 158.648 110.008 156.843 112.08 C 155.039 114.154 153.657 116.687 152.659 119.681 C 151.699 122.675 151.201 126.014 151.201 129.776 C 151.201 133.539 151.699 136.917 152.659 139.911 C 153.619 142.905 155.001 145.438 156.843 147.511 C 158.648 149.584 160.874 151.158 163.522 152.271 C 166.171 153.345 169.165 153.922 172.581 153.922 C 175.921 153.922 178.914 153.384 181.563 152.271 C 184.174 151.196 186.4 149.584 188.204 147.511 C 190.008 145.438 191.39 142.905 192.388 139.911 C 193.386 136.917 193.846 133.539 193.846 129.776 Z M 268.007 92.044 L 268.007 105.939 L 247.547 105.939 L 247.547 167.548 L 230.043 167.548 L 230.043 105.939 L 209.584 105.939 L 209.584 92.044 L 268.007 92.044 Z M 335.027 92.044 L 335.027 105.939 L 313.8 105.939 L 313.8 167.548 L 296.296 167.548 L 296.296 105.939 L 275.837 105.939 L 275.837 92.044 L 335.027 92.044 Z" style="filter: none; fill: rgb(255, 255, 255); transform-origin: 189.566px 136.417px;" transform="matrix(0.988468110561, -0.151430025697, 0.151430025697, 0.988468110561, 0.000013113381, 0.000005696479)"/>
</svg>